<svg id="Слой_1" data-name="Слой 1" xmlns="http://www.w3.org/2000/svg" viewBox="0 0 119 120.7"><defs><style>.cls-1{fill:#bd00ff;}</style></defs><path class="cls-1" d="M50.5,88.88,64.5,28l5.9,4.7L56.2,93.08Zm28.7,12.9a22.76,22.76,0,0,1-15.9,1.6c-5.2-1.5-10.3-4.8-15.2-10.1A87.81,87.81,0,0,1,34.7,72c-4-8.6-6.5-16.4-7.5-23.5s-.3-13.3,1.9-18.4a21.87,21.87,0,0,1,11.3-11.5,22,22,0,0,1,16.1-1.3c5.3,1.6,10.3,5,15.2,10.4,4.9,5.2,9.3,12.2,13.3,20.8,4.1,8.9,6.7,16.9,7.6,24.1s.3,13.1-1.9,18A23.24,23.24,0,0,1,79.2,101.78Zm-3.8-8a12,12,0,0,0,6.6-7.9c1.1-3.7,1.1-8.3.1-13.8S78.8,60,75.5,52.78A76,76,0,0,0,65.3,36c-3.6-4.5-7.2-7.6-10.8-9.2a11.78,11.78,0,0,0-16.9,7.9,32.57,32.57,0,0,0,0,14.3A84.08,84.08,0,0,0,44,67.58c3.4,7.2,6.8,13.1,10.4,17.5s7.2,7.3,10.8,8.8A11.76,11.76,0,0,0,75.4,93.78Z"/></svg>