<svg id="Слой_1" data-name="Слой 1" xmlns="http://www.w3.org/2000/svg" viewBox="0 0 674 80.54"><defs><style>.cls-1{fill:#061510;}.cls-2{fill:#bd00ff;}</style></defs><path class="cls-1" d="M101.76,79.87V20h7v8.64a14.31,14.31,0,0,1,3-5.47,12.19,12.19,0,0,1,4.61-3.08,15.67,15.67,0,0,1,5.76-1A16.91,16.91,0,0,1,129,20.45a15.41,15.41,0,0,1,5.86,4.13,19.15,19.15,0,0,1,4,7,29.13,29.13,0,0,1,1.54,10,29.4,29.4,0,0,1-1.63,10.17,21.49,21.49,0,0,1-4.23,7.4,18,18,0,0,1-6,4.41A16.51,16.51,0,0,1,121.92,65a15.63,15.63,0,0,1-5.09-.86,14.32,14.32,0,0,1-4.41-2.31,19.43,19.43,0,0,1-3.56-3.74V79.87Zm19-21a13.7,13.7,0,0,0,4.51-.77,11.17,11.17,0,0,0,4-2.78,13.28,13.28,0,0,0,2.88-5.19,27.61,27.61,0,0,0,1.06-8.25,25.87,25.87,0,0,0-1.35-8.93A12.25,12.25,0,0,0,128,27.17,10.36,10.36,0,0,0,121.82,25a11.29,11.29,0,0,0-5.08.77,10.57,10.57,0,0,0-4.13,3.17,16,16,0,0,0-2.88,5.85,33.56,33.56,0,0,0-1,8.64,28.81,28.81,0,0,0,.67,5.57,17.19,17.19,0,0,0,1.63,4.42,12.12,12.12,0,0,0,2.5,3.07,11.65,11.65,0,0,0,3.26,1.82A12.85,12.85,0,0,0,120.77,58.85Zm26,5V58.27h13V5.57H147.36V0h19.39V58.27h12.87v5.57Zm55.88,1.06a15.47,15.47,0,0,1-4.9-.77,13.39,13.39,0,0,1-4.22-2.31,15.18,15.18,0,0,1-3.17-4A21.43,21.43,0,0,1,188.26,52a38.67,38.67,0,0,1-.68-7.58l.1-24.48h6.72V44.45a27.67,27.67,0,0,0,.77,7,12.69,12.69,0,0,0,2.11,4.6,8.54,8.54,0,0,0,3.26,2.5,9.86,9.86,0,0,0,3.84.77,11.5,11.5,0,0,0,4.42-.87,11.05,11.05,0,0,0,3.74-2.78,12.36,12.36,0,0,0,2.69-4.7,21.66,21.66,0,0,0,1-6.82V20h6.72V57c0,1.16,0,2.31.1,3.46a13.63,13.63,0,0,0,.86,3.36h-6.62a10.24,10.24,0,0,1-.67-2.21c-.13-.77-.23-1.53-.29-2.3V57.12a15.7,15.7,0,0,1-5.76,5.76,14.59,14.59,0,0,1-3.75,1.44A14.39,14.39,0,0,1,202.66,64.9Zm33.79-1.06V20h6.33v4.32a13.14,13.14,0,0,1,2.4-2.79,11.29,11.29,0,0,1,3.08-1.92,9.61,9.61,0,0,1,3.45-.67,7.4,7.4,0,0,1,3.55.87A6.87,6.87,0,0,1,258,22a7.74,7.74,0,0,1,1.54,3.36,10.18,10.18,0,0,1,5.76-5.56,10.31,10.31,0,0,1,4.13-.87,8.06,8.06,0,0,1,3.84.87,7.35,7.35,0,0,1,2.68,2.4,9.38,9.38,0,0,1,1.54,3.55,16,16,0,0,1,.38,4.41v33.7h-6.33V32.74a21.08,21.08,0,0,0-.58-5.86,3.34,3.34,0,0,0-1.44-2.3,4,4,0,0,0-2.11-.58,4.77,4.77,0,0,0-3.46,1.73,14,14,0,0,0-2.59,4.13,13.77,13.77,0,0,0-1,5v29h-6.43V33.31q0-5.48-1.06-7.29c-.64-1.22-1.88-1.83-3.74-1.83a4,4,0,0,0-2.21.77,7.55,7.55,0,0,0-2,2,9.6,9.6,0,0,0-1.54,3.16,15.58,15.58,0,0,0-.58,4.42V63.84Zm53.76,0V20h6.33v4.32a13.14,13.14,0,0,1,2.4-2.79A11.29,11.29,0,0,1,302,19.58a9.61,9.61,0,0,1,3.45-.67,7.4,7.4,0,0,1,3.55.87,6.87,6.87,0,0,1,2.69,2.2,7.74,7.74,0,0,1,1.54,3.36A10.18,10.18,0,0,1,319,19.78a10.31,10.31,0,0,1,4.13-.87,8.06,8.06,0,0,1,3.84.87,7.35,7.35,0,0,1,2.68,2.4,9.38,9.38,0,0,1,1.54,3.55,16,16,0,0,1,.38,4.41v33.7h-6.33V32.74a21.08,21.08,0,0,0-.58-5.86,3.34,3.34,0,0,0-1.44-2.3,4,4,0,0,0-2.11-.58,4.77,4.77,0,0,0-3.46,1.73,14,14,0,0,0-2.59,4.13,13.77,13.77,0,0,0-1,5v29h-6.43V33.31q0-5.48-1.06-7.29c-.64-1.22-1.88-1.83-3.74-1.83a4,4,0,0,0-2.21.77,7.55,7.55,0,0,0-2,2,9.6,9.6,0,0,0-1.54,3.16,15.58,15.58,0,0,0-.58,4.42V63.84Zm56.54,16.7a16.17,16.17,0,0,1-5.66-1,13.14,13.14,0,0,1-4.42-2.78l3-4.7.57-.87.58.39a2.62,2.62,0,0,0,.67,1.24,8.09,8.09,0,0,0,1.83,1.44,8.17,8.17,0,0,0,1.82.39,10.11,10.11,0,0,0,2,.19,7.24,7.24,0,0,0,4.32-1.25,10.17,10.17,0,0,0,3.16-3.84,42.12,42.12,0,0,0,2.6-6.53l8.35-25.82c1-2.94,1.89-5.86,2.78-8.74A45.83,45.83,0,0,0,370.18,20h6.91A58.52,58.52,0,0,1,375,28.9q-1.44,4.5-3.08,9L361,68.83q-2.31,6.44-5.95,9A13.32,13.32,0,0,1,346.75,80.54ZM339,20h7.2l14.2,36.57-3.07,8.55Z"/><path class="cls-1" d="M44.26,68.33,3.36,44.42v-4.6L44,18.41v6.81l-33.31,17L44.26,61Zm15.55,8.54-5.67-2.78L84.19,9,90,12Z"/><path class="cls-1" d="M455.36,64.9a22.22,22.22,0,0,1-8.83-1.73,21.25,21.25,0,0,1-7-4.8,22.58,22.58,0,0,1-4.51-7.2A25.35,25.35,0,0,1,433.38,42a24.28,24.28,0,0,1,1.63-9,22.3,22.3,0,0,1,4.51-7.3,21.25,21.25,0,0,1,7-4.8,22,22,0,0,1,8.73-1.73,20.4,20.4,0,0,1,9.6,2.21,18.11,18.11,0,0,1,7,6l-4.32,4.23-.67.67-.48-.48a2.92,2.92,0,0,0-.38-1.44,7.06,7.06,0,0,0-1.44-1.82,12.28,12.28,0,0,0-4.52-2.69A18.31,18.31,0,0,0,454.5,25a12.39,12.39,0,0,0-5.28,1.15,14.18,14.18,0,0,0-4.52,3.36,16,16,0,0,0-3.07,5.19,19.19,19.19,0,0,0-1.15,6.81,20,20,0,0,0,1.15,6.91,17.47,17.47,0,0,0,3.17,5.38,14.86,14.86,0,0,0,4.8,3.65,15.32,15.32,0,0,0,6.14,1.25,15.49,15.49,0,0,0,4.23-.58,18.22,18.22,0,0,0,3.84-1.82,19.2,19.2,0,0,0,3.36-3l4,4.7a21.77,21.77,0,0,1-7.3,5.19A21,21,0,0,1,455.36,64.9Zm93-.1a16.26,16.26,0,0,1-6.62-1.44A18.63,18.63,0,0,1,535.9,59a21.15,21.15,0,0,1-4.12-7.3,31,31,0,0,1-1.54-10.27,28.55,28.55,0,0,1,1.63-10.27,19.52,19.52,0,0,1,4.32-7,16.46,16.46,0,0,1,5.95-4,17.22,17.22,0,0,1,6.63-1.34,14.62,14.62,0,0,1,5.47,1,13.07,13.07,0,0,1,4.32,2.68,11.34,11.34,0,0,1,3,3.94V0h7.29V.67a3,3,0,0,0-.77,1.25,20,20,0,0,0-.09,2.3l.09,52.8c0,1.16,0,2.31.1,3.46a14.09,14.09,0,0,0,.86,3.36h-6.81a10.14,10.14,0,0,1-.67-2.3c-.13-.77-.23-1.51-.29-2.21V57A18.49,18.49,0,0,1,558,61.15a14.45,14.45,0,0,1-4.32,2.69A14.09,14.09,0,0,1,548.38,64.8Zm1.06-6a10.73,10.73,0,0,0,5.38-1.25,10.24,10.24,0,0,0,3.55-3.64,18.2,18.2,0,0,0,1.92-5.48,32.17,32.17,0,0,0,.67-6.72,28.26,28.26,0,0,0-1.25-8.73,12.67,12.67,0,0,0-3.93-6.15,10.3,10.3,0,0,0-6.92-2.3,11.4,11.4,0,0,0-5.18,1.15,9.86,9.86,0,0,0-3.74,3.17,16,16,0,0,0-2.21,5.09,25.44,25.44,0,0,0-.77,6.53A29.2,29.2,0,0,0,538.4,50a14.23,14.23,0,0,0,4.22,6.43A10.38,10.38,0,0,0,549.44,58.75Zm50.59,6a25.22,25.22,0,0,1-8.73-1.44,18.45,18.45,0,0,1-11.14-11.52,29.19,29.19,0,0,1-1.54-9.79,29.55,29.55,0,0,1,1.54-9.89,21.65,21.65,0,0,1,4.32-7.2,18.68,18.68,0,0,1,6.43-4.51,20.44,20.44,0,0,1,7.87-1.54,19.47,19.47,0,0,1,7,1.25A14.8,14.8,0,0,1,611.46,24a17.12,17.12,0,0,1,3.74,6.43,27.14,27.14,0,0,1,1.44,9.31,13.59,13.59,0,0,1-.1,1.64,13.08,13.08,0,0,1-.09,1.53h-31.2a23,23,0,0,0,1.44,7.39A15.12,15.12,0,0,0,590,55.39a13.37,13.37,0,0,0,4.61,2.88,16.7,16.7,0,0,0,5.66,1,18.56,18.56,0,0,0,4.32-.48,15,15,0,0,0,3.75-1.63,15.44,15.44,0,0,0,3.26-2.78l3.84,3.74a17.91,17.91,0,0,1-4.22,3.74A15.69,15.69,0,0,1,606.08,64,22.78,22.78,0,0,1,600,64.8ZM585.54,37.54h24.09a16.29,16.29,0,0,0-.86-5.48,11.13,11.13,0,0,0-2.31-4.22,8.6,8.6,0,0,0-3.55-2.69,10.58,10.58,0,0,0-4.61-1,12.87,12.87,0,0,0-4.41.77,10.59,10.59,0,0,0-3.75,2.5,14.45,14.45,0,0,0-3,4.12A21.15,21.15,0,0,0,585.54,37.54Z"/><path class="cls-1" d="M629.84,68.33V61l33.5-18.81L630,25.22V18.41l40.71,21.41v4.6Z"/><path class="cls-2" d="M494.87,59.36l9.31-40.68,3.91,3.16-9.47,40.33ZM514,67.92a15,15,0,0,1-10.64,1q-5.25-1.48-10.13-6.72a57.74,57.74,0,0,1-9-14.25,55.28,55.28,0,0,1-5-15.68q-.93-7.2,1.28-12.25a14.43,14.43,0,0,1,7.55-7.65,14.45,14.45,0,0,1,10.72-.87q5.28,1.56,10.12,6.93a53.56,53.56,0,0,1,8.9,13.86,55.45,55.45,0,0,1,5,16.07q1,7.08-1.27,12A14.93,14.93,0,0,1,514,67.92Zm-2.48-5.31A8.12,8.12,0,0,0,516,57.36a19.22,19.22,0,0,0,0-9.23,54.77,54.77,0,0,0-4.42-12.88A51.61,51.61,0,0,0,504.77,24a20.88,20.88,0,0,0-7.22-6.17,7.87,7.87,0,0,0-11.31,5.27,21.75,21.75,0,0,0,0,9.54,55.24,55.24,0,0,0,4.3,12.4,58.62,58.62,0,0,0,6.93,11.7,20,20,0,0,0,7.19,5.86A8.09,8.09,0,0,0,511.53,62.61Z"/></svg>