<svg id="Слой_1" data-name="Слой 1" xmlns="http://www.w3.org/2000/svg" viewBox="0 0 664.14 673.63"><defs><style>.cls-1{fill:#cecece;}.cls-2{fill:#bd00ff;opacity:0.43;}</style></defs><rect class="cls-1" width="664.14" height="673.63"/><path class="cls-2" d="M269,529.4,363.15,120l39.68,31.61-95.49,406Zm193,86.76a153.11,153.11,0,0,1-106.93,10.76c-35-10.09-69.26-32.28-102.22-67.93a590.77,590.77,0,0,1-90.11-143.1c-26.9-57.84-43.71-110.29-50.44-158s-2-89.44,12.78-123.74a147.1,147.1,0,0,1,76-77.33A148,148,0,0,1,309.35,48C345,58.79,378.62,81.66,411.57,118c32.95,35,62.54,82.05,89.44,139.88,27.58,59.85,45.06,113.65,51.11,162.07s2,88.1-12.77,121.05A156.3,156.3,0,0,1,462,616.16Zm-25.56-53.8a80.71,80.71,0,0,0,44.39-53.13c7.4-24.88,7.4-55.82.67-92.8s-22.19-81.24-44.38-129.8a511.14,511.14,0,0,0-68.6-112.84c-24.21-30.26-48.42-51.11-72.63-61.87a79.22,79.22,0,0,0-113.65,53.13,219.12,219.12,0,0,0,0,96.16,565.75,565.75,0,0,0,43,125c22.87,48.42,45.73,88.1,69.94,117.69s48.42,49.09,72.63,59.18A79.09,79.09,0,0,0,436.45,562.36Z"/></svg>