<svg id="Слой_1" data-name="Слой 1" xmlns="http://www.w3.org/2000/svg" viewBox="0 0 667.38 80.54"><defs><style>.cls-1{fill:#061510;}.cls-2{fill:#bd00ff;}</style></defs><path class="cls-1" d="M98.4,79.87V20h7v8.64a14.31,14.31,0,0,1,3-5.47A12.19,12.19,0,0,1,113,20.06a15.67,15.67,0,0,1,5.76-1,16.91,16.91,0,0,1,6.91,1.44,15.41,15.41,0,0,1,5.86,4.13,19.15,19.15,0,0,1,4,7,29.13,29.13,0,0,1,1.54,10,29.4,29.4,0,0,1-1.63,10.17,21.49,21.49,0,0,1-4.23,7.4,18,18,0,0,1-5.95,4.41A16.51,16.51,0,0,1,118.56,65a15.63,15.63,0,0,1-5.09-.86,14.32,14.32,0,0,1-4.41-2.31,19.43,19.43,0,0,1-3.56-3.74V79.87Zm19-21a13.7,13.7,0,0,0,4.51-.77,11.17,11.17,0,0,0,4-2.78,13.28,13.28,0,0,0,2.88-5.19,27.61,27.61,0,0,0,1.06-8.25,25.87,25.87,0,0,0-1.35-8.93,12.25,12.25,0,0,0-3.93-5.76A10.36,10.36,0,0,0,118.46,25a11.29,11.29,0,0,0-5.08.77,10.57,10.57,0,0,0-4.13,3.17,16,16,0,0,0-2.88,5.85,33.56,33.56,0,0,0-1,8.64,28.81,28.81,0,0,0,.67,5.57,17.19,17.19,0,0,0,1.63,4.42,12.12,12.12,0,0,0,2.5,3.07,11.65,11.65,0,0,0,3.26,1.82A12.85,12.85,0,0,0,117.41,58.85Zm26,5V58.27h13V5.57H144V0h19.39V58.27h12.87v5.57ZM199.3,64.9a15.47,15.47,0,0,1-4.9-.77,13.39,13.39,0,0,1-4.22-2.31,15.18,15.18,0,0,1-3.17-4A21.43,21.43,0,0,1,184.9,52a38.67,38.67,0,0,1-.68-7.58l.1-24.48H191V44.45a27.67,27.67,0,0,0,.77,7,12.69,12.69,0,0,0,2.11,4.6,8.54,8.54,0,0,0,3.26,2.5,9.86,9.86,0,0,0,3.84.77,11.5,11.5,0,0,0,4.42-.87,11.05,11.05,0,0,0,3.74-2.78,12.36,12.36,0,0,0,2.69-4.7,21.66,21.66,0,0,0,1-6.82V20h6.72V57c0,1.16,0,2.31.1,3.46a13.63,13.63,0,0,0,.86,3.36h-6.62a10.24,10.24,0,0,1-.67-2.21c-.13-.77-.23-1.53-.29-2.3V57.12a15.7,15.7,0,0,1-5.76,5.76,14.59,14.59,0,0,1-3.75,1.44A14.39,14.39,0,0,1,199.3,64.9Zm33.79-1.06V20h6.33v4.32a13.14,13.14,0,0,1,2.4-2.79,11.29,11.29,0,0,1,3.08-1.92,9.61,9.61,0,0,1,3.45-.67,7.4,7.4,0,0,1,3.55.87,6.87,6.87,0,0,1,2.69,2.2,7.74,7.74,0,0,1,1.54,3.36,10.18,10.18,0,0,1,5.76-5.56,10.31,10.31,0,0,1,4.13-.87,8.06,8.06,0,0,1,3.84.87,7.35,7.35,0,0,1,2.68,2.4,9.38,9.38,0,0,1,1.54,3.55,16,16,0,0,1,.38,4.41v33.7h-6.33V32.74a21.08,21.08,0,0,0-.58-5.86,3.34,3.34,0,0,0-1.44-2.3A4,4,0,0,0,264,24a4.77,4.77,0,0,0-3.46,1.73A14,14,0,0,0,258,29.86a13.77,13.77,0,0,0-1,5v29h-6.43V33.31q0-5.48-1.06-7.29c-.64-1.22-1.88-1.83-3.74-1.83a4,4,0,0,0-2.21.77,7.55,7.55,0,0,0-2,2A9.6,9.6,0,0,0,240,30.14a15.58,15.58,0,0,0-.58,4.42V63.84Zm53.76,0V20h6.33v4.32a13.14,13.14,0,0,1,2.4-2.79,11.29,11.29,0,0,1,3.08-1.92,9.61,9.61,0,0,1,3.45-.67,7.4,7.4,0,0,1,3.55.87,6.87,6.87,0,0,1,2.69,2.2,7.74,7.74,0,0,1,1.54,3.36,10.18,10.18,0,0,1,5.76-5.56,10.31,10.31,0,0,1,4.13-.87,8.06,8.06,0,0,1,3.84.87,7.35,7.35,0,0,1,2.68,2.4,9.38,9.38,0,0,1,1.54,3.55,16,16,0,0,1,.38,4.41v33.7h-6.33V32.74a21.08,21.08,0,0,0-.58-5.86,3.34,3.34,0,0,0-1.44-2.3,4,4,0,0,0-2.11-.58,4.77,4.77,0,0,0-3.46,1.73,14,14,0,0,0-2.59,4.13,13.77,13.77,0,0,0-1,5v29h-6.43V33.31q0-5.48-1.06-7.29c-.64-1.22-1.88-1.83-3.74-1.83a4,4,0,0,0-2.21.77,7.55,7.55,0,0,0-2,2,9.6,9.6,0,0,0-1.54,3.16,15.58,15.58,0,0,0-.58,4.42V63.84Zm56.54,16.7a16.17,16.17,0,0,1-5.66-1,13.14,13.14,0,0,1-4.42-2.78l3-4.7.57-.87.58.39a2.62,2.62,0,0,0,.67,1.24,8.09,8.09,0,0,0,1.83,1.44,8.17,8.17,0,0,0,1.82.39,10.11,10.11,0,0,0,2,.19,7.24,7.24,0,0,0,4.32-1.25,10.17,10.17,0,0,0,3.16-3.84,42.12,42.12,0,0,0,2.6-6.53l8.35-25.82c1-2.94,1.89-5.86,2.78-8.74A45.83,45.83,0,0,0,366.82,20h6.91a58.52,58.52,0,0,1-2.11,8.93q-1.44,4.5-3.08,9L357.6,68.83q-2.31,6.44-6,9A13.32,13.32,0,0,1,343.39,80.54ZM335.62,20h7.2L357,56.54,354,65.09Z"/><path class="cls-1" d="M40.9,67.33,0,43.42v-4.6L40.61,17.41v6.81L7.3,41.22,40.9,60Zm15.55,8.54-5.67-2.78L80.83,8l5.76,3Z"/><path class="cls-1" d="M452,64.9a22.22,22.22,0,0,1-8.83-1.73,21.25,21.25,0,0,1-7-4.8,22.58,22.58,0,0,1-4.51-7.2A25.35,25.35,0,0,1,430,42a24.28,24.28,0,0,1,1.63-9,22.3,22.3,0,0,1,4.51-7.3,21.25,21.25,0,0,1,7-4.8,22,22,0,0,1,8.73-1.73,20.4,20.4,0,0,1,9.6,2.21,18.11,18.11,0,0,1,7,6l-4.32,4.23-.67.67-.48-.48a2.92,2.92,0,0,0-.38-1.44,7.06,7.06,0,0,0-1.44-1.82,12.28,12.28,0,0,0-4.52-2.69,18.31,18.31,0,0,0-5.56-.77,12.39,12.39,0,0,0-5.28,1.15,14.18,14.18,0,0,0-4.52,3.36,16,16,0,0,0-3.07,5.19,19.19,19.19,0,0,0-1.15,6.81,20,20,0,0,0,1.15,6.91,17.47,17.47,0,0,0,3.17,5.38,14.86,14.86,0,0,0,4.8,3.65,15.32,15.32,0,0,0,6.14,1.25,15.49,15.49,0,0,0,4.23-.58,18.22,18.22,0,0,0,3.84-1.82,19.2,19.2,0,0,0,3.36-3l4,4.7a21.77,21.77,0,0,1-7.3,5.19A21,21,0,0,1,452,64.9ZM481.57,0h7.58V.67a3,3,0,0,0-.77,1.25,20,20,0,0,0-.09,2.3V27.74a19.92,19.92,0,0,1,4-4.6,18.8,18.8,0,0,1,5-3.08,13.71,13.71,0,0,1,5.38-1.15,12.92,12.92,0,0,1,6.91,1.83,11.44,11.44,0,0,1,4.7,5.85A27.3,27.3,0,0,1,516,37.25V63.84h-6.72V37.44a20.63,20.63,0,0,0-1.05-7.3,7.74,7.74,0,0,0-2.88-3.93A7.18,7.18,0,0,0,501.25,25a11.56,11.56,0,0,0-3.55.58,12.7,12.7,0,0,0-6.53,4.6,12.51,12.51,0,0,0-2.11,3.75,13.47,13.47,0,0,0-.77,4.7V63.84h-6.72ZM598.3,64.51a14.58,14.58,0,0,1-6.91-1.44,9.58,9.58,0,0,1-4.13-4.41A24.07,24.07,0,0,1,585.34,51,99.44,99.44,0,0,1,585.15,40L586.3,8.74l7.2-.87,1-.09.1.67a14.35,14.35,0,0,0-.86,1.34,8.61,8.61,0,0,0-.48,2.31l-.87,10.84.29,1.73L592,40.51a59,59,0,0,0,.38,11.33c.45,2.62,1.25,4.45,2.4,5.47a7,7,0,0,0,4.61,1.44,11.82,11.82,0,0,0,5.57-1.25,38.77,38.77,0,0,0,5.18-3.16l2.11,5.47a24.22,24.22,0,0,1-6.72,3.55A22.52,22.52,0,0,1,598.3,64.51ZM576.32,20H607.9v5.66H576.32Z"/><path class="cls-2" d="M544.74,64.9q-7.5,0-11.52-3.36a11,11,0,0,1-4-8.74,11.8,11.8,0,0,1,1.73-6.34,14.58,14.58,0,0,1,4.71-4.8,24,24,0,0,1,7.1-3.07,33.81,33.81,0,0,1,8.54-1.05q1.63,0,3.27.09c1.15,0,2.33.07,3.55.19s2.59.2,3.94.39l.19,5.28a33.81,33.81,0,0,0-3.55-.39c-1.16-.12-2.31-.22-3.46-.28s-2.27-.1-3.36-.1a32,32,0,0,0-6.34.58,17.73,17.73,0,0,0-5,1.72,8.65,8.65,0,0,0-3.26,3,9.13,9.13,0,0,0-.48,7.87,6.67,6.67,0,0,0,2,2.21,9.75,9.75,0,0,0,2.88,1.15,17.06,17.06,0,0,0,3.75.39A17.69,17.69,0,0,0,552,58.46a13.26,13.26,0,0,0,5-3.55,14.68,14.68,0,0,0,3.17-5.66,25.42,25.42,0,0,0,1.06-7.68c0-4.35-.51-7.75-1.54-10.18a9.7,9.7,0,0,0-4.61-5.18,18.06,18.06,0,0,0-13.92-.29,15.52,15.52,0,0,0-5.56,3.65l-3.36-4.42a20,20,0,0,1,7.1-4.61A23.9,23.9,0,0,1,547.9,19a27.77,27.77,0,0,1,7.88,1,14.08,14.08,0,0,1,6,3.56,15,15,0,0,1,3.94,6.52,31.91,31.91,0,0,1,1.44,10.37V63.84h-7.49V57.12a12.75,12.75,0,0,1-3.07,3.94,14,14,0,0,1-3.74,2.4,18.69,18.69,0,0,1-4.13,1.05A22.22,22.22,0,0,1,544.74,64.9Z"/><path class="cls-1" d="M626.48,67.33V60L660,41.22l-33.31-17V17.41l40.71,21.41v4.6Z"/></svg>